<svg xmlns="http://www.w3.org/2000/svg" width="24" height="24"><defs><filter id="a"><feFlood flood-color="#FFF" flood-opacity="1" result="floodOut"/><feComposite operator="atop" in="floodOut" in2="SourceGraphic" result="compOut"/><feBlend in="compOut" in2="SourceGraphic"/></filter></defs><path fill-rule="evenodd" d="M23.76 22.68l-6.2-6.1a9.8 9.8 0 0 0 2.63-6.65c0-5.49-4.52-9.93-10.1-9.93C4.52 0 0 4.44 0 9.93c0 5.49 4.52 9.93 10.1 9.93 2.4 0 4.61-.83 6.35-2.22l6.21 6.12c.3.3.8.3 1.1 0 .3-.3.3-.78 0-1.08zM10.1 18.33a8.47 8.47 0 0 1-8.54-8.4c0-4.64 3.83-8.4 8.54-8.4a8.47 8.47 0 0 1 8.54 8.4c0 4.64-3.82 8.4-8.54 8.4z" filter="url(#a)"/></svg>